<mxfile host="app.diagrams.net" modified="2022-11-05T02:30:33.040Z" agent="5.0 (Windows NT 10.0; Win64; x64) AppleWebKit/537.36 (KHTML, like Gecko) Chrome/107.0.0.0 Safari/537.36" etag="IMQ8-qh2zKjxX5lefSOF" version="20.5.2" type="github">
  <diagram id="C5RBs43oDa-KdzZeNtuy" name="Page-1">
    <mxGraphModel dx="1038" dy="571" grid="1" gridSize="10" guides="1" tooltips="1" connect="1" arrows="1" fold="1" page="1" pageScale="1" pageWidth="827" pageHeight="1169" math="0" shadow="0">
      <root>
        <mxCell id="WIyWlLk6GJQsqaUBKTNV-0" />
        <mxCell id="WIyWlLk6GJQsqaUBKTNV-1" parent="WIyWlLk6GJQsqaUBKTNV-0" />
        <mxCell id="WIyWlLk6GJQsqaUBKTNV-2" value="no" style="rounded=0;html=1;jettySize=auto;orthogonalLoop=1;fontSize=11;endArrow=block;endFill=0;endSize=8;strokeWidth=1;shadow=0;labelBackgroundColor=none;edgeStyle=orthogonalEdgeStyle;startArrow=none;" parent="WIyWlLk6GJQsqaUBKTNV-1" source="7FEiRywCIf4Wg1EBXVzI-20" target="WIyWlLk6GJQsqaUBKTNV-6" edge="1">
          <mxGeometry x="-0.1429" y="-10" relative="1" as="geometry">
            <mxPoint as="offset" />
          </mxGeometry>
        </mxCell>
        <mxCell id="WIyWlLk6GJQsqaUBKTNV-4" value="Yes" style="rounded=0;html=1;jettySize=auto;orthogonalLoop=1;fontSize=11;endArrow=block;endFill=0;endSize=8;strokeWidth=1;shadow=0;labelBackgroundColor=none;edgeStyle=orthogonalEdgeStyle;" parent="WIyWlLk6GJQsqaUBKTNV-1" source="WIyWlLk6GJQsqaUBKTNV-6" target="WIyWlLk6GJQsqaUBKTNV-10" edge="1">
          <mxGeometry y="20" relative="1" as="geometry">
            <mxPoint as="offset" />
          </mxGeometry>
        </mxCell>
        <mxCell id="WIyWlLk6GJQsqaUBKTNV-5" value="No" style="edgeStyle=orthogonalEdgeStyle;rounded=0;html=1;jettySize=auto;orthogonalLoop=1;fontSize=11;endArrow=block;endFill=0;endSize=8;strokeWidth=1;shadow=0;labelBackgroundColor=none;entryX=0;entryY=0.5;entryDx=0;entryDy=0;" parent="WIyWlLk6GJQsqaUBKTNV-1" source="WIyWlLk6GJQsqaUBKTNV-6" target="7FEiRywCIf4Wg1EBXVzI-6" edge="1">
          <mxGeometry y="10" relative="1" as="geometry">
            <mxPoint as="offset" />
            <mxPoint x="360" y="440" as="targetPoint" />
            <Array as="points" />
          </mxGeometry>
        </mxCell>
        <mxCell id="WIyWlLk6GJQsqaUBKTNV-6" value="already have the item?" style="rhombus;whiteSpace=wrap;html=1;shadow=0;fontFamily=Helvetica;fontSize=12;align=center;strokeWidth=1;spacing=6;spacingTop=-4;" parent="WIyWlLk6GJQsqaUBKTNV-1" vertex="1">
          <mxGeometry x="170" y="400" width="100" height="80" as="geometry" />
        </mxCell>
        <mxCell id="WIyWlLk6GJQsqaUBKTNV-8" value="" style="rounded=0;html=1;jettySize=auto;orthogonalLoop=1;fontSize=11;endArrow=block;endFill=0;endSize=8;strokeWidth=1;shadow=0;labelBackgroundColor=none;edgeStyle=orthogonalEdgeStyle;exitX=0;exitY=0.5;exitDx=0;exitDy=0;entryX=0;entryY=0.5;entryDx=0;entryDy=0;" parent="WIyWlLk6GJQsqaUBKTNV-1" source="WIyWlLk6GJQsqaUBKTNV-10" target="7FEiRywCIf4Wg1EBXVzI-4" edge="1">
          <mxGeometry x="0.1176" y="-30" relative="1" as="geometry">
            <mxPoint as="offset" />
            <mxPoint x="80" y="440" as="sourcePoint" />
            <mxPoint x="130" y="190" as="targetPoint" />
            <Array as="points">
              <mxPoint x="90" y="570" />
              <mxPoint x="90" y="170" />
            </Array>
          </mxGeometry>
        </mxCell>
        <mxCell id="WIyWlLk6GJQsqaUBKTNV-10" value="continue to next item" style="rhombus;whiteSpace=wrap;html=1;shadow=0;fontFamily=Helvetica;fontSize=12;align=center;strokeWidth=1;spacing=6;spacingTop=-4;" parent="WIyWlLk6GJQsqaUBKTNV-1" vertex="1">
          <mxGeometry x="170" y="530" width="100" height="80" as="geometry" />
        </mxCell>
        <mxCell id="7FEiRywCIf4Wg1EBXVzI-1" value="" style="group" vertex="1" connectable="0" parent="WIyWlLk6GJQsqaUBKTNV-1">
          <mxGeometry x="115" y="40" width="210" height="70" as="geometry" />
        </mxCell>
        <mxCell id="WIyWlLk6GJQsqaUBKTNV-3" value="ItemPurchaseThink" style="rounded=1;whiteSpace=wrap;html=1;fontSize=12;glass=0;strokeWidth=1;shadow=0;movable=1;resizable=1;rotatable=1;deletable=1;editable=1;connectable=1;" parent="7FEiRywCIf4Wg1EBXVzI-1" vertex="1">
          <mxGeometry x="45" y="30" width="120" height="40" as="geometry" />
        </mxCell>
        <mxCell id="7FEiRywCIf4Wg1EBXVzI-0" value="itemPurchaseList = {&#39;item1&#39;, &#39;item2&#39;, ...}" style="text;html=1;strokeColor=none;fillColor=none;align=center;verticalAlign=middle;whiteSpace=wrap;rounded=0;movable=1;resizable=1;rotatable=1;deletable=1;editable=1;connectable=1;" vertex="1" parent="7FEiRywCIf4Wg1EBXVzI-1">
          <mxGeometry width="210" height="30" as="geometry" />
        </mxCell>
        <mxCell id="7FEiRywCIf4Wg1EBXVzI-4" value="&lt;span style=&quot;font-size: 11px;&quot;&gt;for item in itemPurchaseList&lt;/span&gt;" style="rhombus;whiteSpace=wrap;html=1;shadow=0;fontFamily=Helvetica;fontSize=12;align=center;strokeWidth=1;spacing=6;spacingTop=-4;" vertex="1" parent="WIyWlLk6GJQsqaUBKTNV-1">
          <mxGeometry x="170" y="130" width="100" height="80" as="geometry" />
        </mxCell>
        <mxCell id="7FEiRywCIf4Wg1EBXVzI-5" value="" style="rounded=0;html=1;jettySize=auto;orthogonalLoop=1;fontSize=11;endArrow=none;endFill=0;endSize=8;strokeWidth=1;shadow=0;labelBackgroundColor=none;edgeStyle=orthogonalEdgeStyle;" edge="1" parent="WIyWlLk6GJQsqaUBKTNV-1" source="WIyWlLk6GJQsqaUBKTNV-3" target="7FEiRywCIf4Wg1EBXVzI-4">
          <mxGeometry y="40" relative="1" as="geometry">
            <mxPoint x="220" y="110" as="sourcePoint" />
            <mxPoint x="230" y="220" as="targetPoint" />
            <mxPoint as="offset" />
          </mxGeometry>
        </mxCell>
        <mxCell id="7FEiRywCIf4Wg1EBXVzI-11" value="yes" style="edgeStyle=orthogonalEdgeStyle;rounded=0;orthogonalLoop=1;jettySize=auto;html=1;" edge="1" parent="WIyWlLk6GJQsqaUBKTNV-1" source="7FEiRywCIf4Wg1EBXVzI-6" target="7FEiRywCIf4Wg1EBXVzI-10">
          <mxGeometry relative="1" as="geometry" />
        </mxCell>
        <mxCell id="7FEiRywCIf4Wg1EBXVzI-17" value="no" style="edgeStyle=orthogonalEdgeStyle;rounded=0;orthogonalLoop=1;jettySize=auto;html=1;" edge="1" parent="WIyWlLk6GJQsqaUBKTNV-1" source="7FEiRywCIf4Wg1EBXVzI-6" target="7FEiRywCIf4Wg1EBXVzI-16">
          <mxGeometry relative="1" as="geometry" />
        </mxCell>
        <mxCell id="7FEiRywCIf4Wg1EBXVzI-6" value="have enough gold?" style="rhombus;whiteSpace=wrap;html=1;shadow=0;fontFamily=Helvetica;fontSize=12;align=center;strokeWidth=1;spacing=6;spacingTop=-4;" vertex="1" parent="WIyWlLk6GJQsqaUBKTNV-1">
          <mxGeometry x="440" y="400" width="100" height="80" as="geometry" />
        </mxCell>
        <mxCell id="7FEiRywCIf4Wg1EBXVzI-13" value="" style="edgeStyle=orthogonalEdgeStyle;rounded=0;orthogonalLoop=1;jettySize=auto;html=1;" edge="1" parent="WIyWlLk6GJQsqaUBKTNV-1" source="7FEiRywCIf4Wg1EBXVzI-10" target="7FEiRywCIf4Wg1EBXVzI-12">
          <mxGeometry relative="1" as="geometry" />
        </mxCell>
        <mxCell id="7FEiRywCIf4Wg1EBXVzI-10" value="PuchaseItem" style="whiteSpace=wrap;html=1;shadow=0;strokeWidth=1;spacing=6;spacingTop=-4;" vertex="1" parent="WIyWlLk6GJQsqaUBKTNV-1">
          <mxGeometry x="650" y="410" width="120" height="60" as="geometry" />
        </mxCell>
        <mxCell id="7FEiRywCIf4Wg1EBXVzI-19" value="yes" style="edgeStyle=orthogonalEdgeStyle;rounded=0;orthogonalLoop=1;jettySize=auto;html=1;entryX=1;entryY=0.5;entryDx=0;entryDy=0;" edge="1" parent="WIyWlLk6GJQsqaUBKTNV-1" source="7FEiRywCIf4Wg1EBXVzI-12" target="7FEiRywCIf4Wg1EBXVzI-16">
          <mxGeometry relative="1" as="geometry">
            <mxPoint x="610" y="740" as="targetPoint" />
          </mxGeometry>
        </mxCell>
        <mxCell id="7FEiRywCIf4Wg1EBXVzI-12" value="Purchase succeed?" style="rhombus;whiteSpace=wrap;html=1;shadow=0;strokeWidth=1;spacing=6;spacingTop=-4;" vertex="1" parent="WIyWlLk6GJQsqaUBKTNV-1">
          <mxGeometry x="670" y="540" width="80" height="80" as="geometry" />
        </mxCell>
        <mxCell id="7FEiRywCIf4Wg1EBXVzI-16" value="End" style="ellipse;whiteSpace=wrap;html=1;shadow=0;strokeWidth=1;spacing=6;spacingTop=-4;" vertex="1" parent="WIyWlLk6GJQsqaUBKTNV-1">
          <mxGeometry x="354" y="680" width="120" height="60" as="geometry" />
        </mxCell>
        <mxCell id="7FEiRywCIf4Wg1EBXVzI-23" value="yes" style="edgeStyle=orthogonalEdgeStyle;rounded=0;orthogonalLoop=1;jettySize=auto;html=1;entryX=0;entryY=0.5;entryDx=0;entryDy=0;jumpStyle=arc;jumpSize=17;" edge="1" parent="WIyWlLk6GJQsqaUBKTNV-1" source="7FEiRywCIf4Wg1EBXVzI-20" target="7FEiRywCIf4Wg1EBXVzI-16">
          <mxGeometry relative="1" as="geometry">
            <Array as="points">
              <mxPoint x="320" y="290" />
              <mxPoint x="320" y="710" />
            </Array>
          </mxGeometry>
        </mxCell>
        <mxCell id="7FEiRywCIf4Wg1EBXVzI-20" value="&lt;span style=&quot;font-size: 11px;&quot;&gt;Is the loop over?&lt;br&gt;&lt;/span&gt;" style="rhombus;whiteSpace=wrap;html=1;shadow=0;fontFamily=Helvetica;fontSize=12;align=center;strokeWidth=1;spacing=6;spacingTop=-4;" vertex="1" parent="WIyWlLk6GJQsqaUBKTNV-1">
          <mxGeometry x="170" y="250" width="100" height="80" as="geometry" />
        </mxCell>
        <mxCell id="7FEiRywCIf4Wg1EBXVzI-22" value="" style="rounded=0;html=1;jettySize=auto;orthogonalLoop=1;fontSize=11;endArrow=none;endFill=0;endSize=8;strokeWidth=1;shadow=0;labelBackgroundColor=none;edgeStyle=orthogonalEdgeStyle;startArrow=none;" edge="1" parent="WIyWlLk6GJQsqaUBKTNV-1" source="7FEiRywCIf4Wg1EBXVzI-4" target="7FEiRywCIf4Wg1EBXVzI-20">
          <mxGeometry y="40" relative="1" as="geometry">
            <mxPoint x="220" y="210" as="sourcePoint" />
            <mxPoint x="220" y="400" as="targetPoint" />
            <mxPoint as="offset" />
          </mxGeometry>
        </mxCell>
      </root>
    </mxGraphModel>
  </diagram>
</mxfile>
